<svg version="1.2" xmlns="http://www.w3.org/2000/svg" viewBox="0 0 5556 2005" width="1024" height="370">
	<title>Tech Vista Code logo</title>
	<defs>
		<linearGradient id="g1" x2="1" gradientUnits="userSpaceOnUse" gradientTransform="matrix(1579.5,0,0,1884.642,314.754,60.128)">
			<stop offset="0" stop-color="#4f75b9"/>
			<stop offset="1" stop-color="#4691ce"/>
		</linearGradient>
	</defs>
	<style>
		.s0 { fill: url(#g1) } 
		.s1 { fill: #8bcce9 } 
		.s2 { fill: #6d85bf } 
		.s3 { fill: #37328c } 
		.s4 { fill: #3d50a2 } 
		.s5 { fill: #ffffff } 
		.s6 { fill: #4256a5 } 
		.s7 { fill: #446ab1 } 
		.s8 { fill: #392f83 } 
		.s9 { fill: #54a2d5 } 
		.s10 { fill: #3d51a2 } 
		.s11 { fill: #393089 } 
		.s12 { fill: #4956a4 } 
		.s13 { fill: #372d7c } 
		.s14 { fill: #3272b4 } 
		.s15 { fill: #3a6bb3 } 
		.s16 { fill: #4a82c3 } 
		.s17 { fill: #231f20 } 
	</style>
	<g id="Layer 1">
		<g id="&lt;Group&gt;">
			<g id="&lt;Group&gt;">
				<path id="&lt;Path&gt;" class="s0" d="m1749.1 1199.9c0 0-2 32.1-64.2 34 0 0-4.9 14 19.3 28.3 24.2 14.2-20.3 47.3-20.3 47.3 0 0-33.7 42.2-3.9 119.4 0 0 32.4 82.4-34.4 133.6 0 0-44.1 46.1-219.9 25.3 0 0-53.8-7.1-74.6-16.9 0 0-92.7 64.9-72.6 166.7 0 0 23.3 91.5 77.2 129.1 0 0-68.1 87.6-296.5 77.2 0 0-174.5-24-296.4-132.3 0 0-130.4-123.9-247.8-120-117.4 3.9-179.7 20.1-179.7 20.1 0 0-38.3-4.5-10.4-48 0 0 121.3-136.9 331.5-270.2 0 0 207.2-123.6 257.8-215 0 0 90.5-138.2-24.3-224.8 0 0-90.5-65.2-159.6-20.4 0 0-84.6 30.2-135.2-27.3 0 0-63.3-69 21.4-162.4 0 0 50.6-49.7 159.6-52.6 0 0 124.5-99.2 122.6-183.9 0 0 0-85.6-41.9-78.8 0 0-41.8 9.7-58.3 25.3 0 0-94.4 56.4-183 28.2 0 0-58.7-32.7-39.5-123.9 0 0 54.4-197.2 406-281.5 0 0 356.8-79.1 554 111.6 0 0 241.3 186.8 216.7 448.8 0 0-32.5 99.9 22 194.6 0 0 63.6 92.2 109 122 0 0 24 43.1-0.3 69.4 0 0-33.1 47.7-99.3 59.4 0 0-98.9 5.8-35 117.7z"/>
				<path id="&lt;Path&gt;" class="s1" d="m649.8 245.8c0 0 175.9 49.6 279-43.8 0 0 76.9-82.5 189.8-85.4 0 0 60.5-5.3 118.8 48.2 0 0 84.1 133.2 208.2 108.6 88.2-17.5 229.2 71.5 229.2 71.5 0 0-110.9-179.3-265.9-238.7 0 0-123.3-60.9-337.4-48 0 0-259.8 25-421.7 187.6z"/>
				<path id="&lt;Path&gt;" class="s2" d="m649.8 245.8l-23.2 25.8c0 0 152.4 49.7 276-31.1 123.5-80.8 138.1-86.6 138.1-86.6 0 0 100.3-32.1 145 7.8 0 0 135.3 122.6 273.4 132.3 138.2 9.8 190.7 65.2 190.7 65.2 0 0 59.2 64 94.2 147.7 0 0-32.9-133.1-120.4-195.4 0 0-53.6-37.9-142.1-41.8 0 0-131.4-15.6-176.1-57.4 0 0-94.4-79.8-136.2-91.5 0 0-84.7-36-204.4 46.7 0 0-136.5 125.1-315 78.3z"/>
				<path id="&lt;Path&gt;" class="s3" d="m1504 292.2c0 0 151.5-7.5 240 214.7 0 0 9.5 42.7 9.6 67.5 0 0-64.8-110.9-93.4-152.4 0 0-57.1-86.3-132.3-77.9 0 0-134.3-2.6-139.5-6.5 0 0-79.1-14.9-129.7-78.4 0 0-57.1-87-123.9-90.9 0 0-83.7-8.4-153.7 46.1 0 0-100.8 82.2-198.8 69.2 0 0 72.9-3.7 167.6-74.4 0 0 68.8-57.7 129.8-66.8 0 0 68.7-17.5 123.2 27.9 0 0 139 135 301.1 121.9z"/>
				<path id="&lt;Path&gt;" class="s4" d="m741.4 390.7c0 38.1-31 69.1-69.1 69.1-38.2 0-69.1-31-69.1-69.1 0-38.2 30.9-69.1 69.1-69.1 38.1 0 69.1 30.9 69.1 69.1z"/>
				<path id="&lt;Path&gt;" class="s5" d="m722.6 388.4c0 29.4-23.9 53.2-53.2 53.2-29.4 0-53.2-23.8-53.2-53.2 0-29.4 23.8-53.2 53.2-53.2 29.3 0 53.2 23.8 53.2 53.2z"/>
				<path id="&lt;Path&gt;" class="s6" d="m1258.6 441.6c0 0 212.5 86.3 269.6 353.5 0 0 27.3 190.7 88.2 247.8 0 0 38.8 67.3 161.4 40 0 0-47.6 7-49.9 47.3 0 0-52.9 39.7-123.1 4.2 0 0-61.7-30.5-98-140.1l-89.5-313c0 0-67.5-165.3-158.7-239.7z"/>
				<path id="&lt;Path&gt;" class="s7" d="m941.2 735.1c0 0-13-249.1 160.8-205 0 0 181.7 35.1 291.9 259.5l92.1 234.8c0 0 61 175.2 210.2 119.4l31.7-13.6c0 0-4.2 26.4 21.2 69.7 0 0-2 32.1-64.2 34 0 0-2.3 6.4 3.8 14.9 0 0-214.3 68.8-280.5-9.4 0 0-9.1-6.1-18.2-107.3 0 0 1.3-95.6-73.6-123.8 0 0-100.2-54.6-111.9-129.5 0 0-61-269.3-172.1-258 0 0-73.4 26.1-91.2 114.3z"/>
				<path id="&lt;Path&gt;" class="s8" d="m873.9 431.5c0 0 252.9-109 403.4 24.6 0 0 122 76.6 186.9 386.6 0 0 51.2 197.2 73.6 217.6 0 0 70.9 128.5 190.9 69.5 0 0-35.6 47.6-144.5 16.5 0 0-69.5-36.3-109.7-146.6l-105.1-284.1c0 0-120.9-413.5-471.2-196.8 0 0 3.4-69.3-24.3-87.3z"/>
				<path id="&lt;Path&gt;" class="s9" d="m776.1 691c0 0 105.6 18.3 167 46.1l48-14.6 219.3 303.5 36.3 115.5 29.8 146.6 140.1 122 171.3 127.1 41.5 29.8 5.4 3c0 0-11.9 7.1-25.2 10.5 0 0-470.6-82.9-529-516.8 0 0-96.3-183-198.5-174.2 0 0-80.7-1.3-151.8 43.8 0 0-64.2 23.7-119-12.3 0 0-55.5-38.3-34-113.2 0 0 9.7-32.8 39.2-64.2 0 0 48.6-48.7 159.6-52.6z"/>
				<path id="&lt;Path&gt;" class="s10" d="m1609.6 1580.5c0 0-68.4-23.2-126.8-53.7 0 0-171.9-82.4-227.7-181.6 0 0-58.4-120-59.7-160.9 0 0-42.8-244.2-121.6-331.8 0 0-82.7-101.5-130.7-115.4l-0.6-4.3c0 0-14.6-111.8 100.2-113.8 114.8-1.9 148.8 181 148.8 181 0 0 6.9 126.5 77.9 169.3 71 42.8 153.7 69.1 133.3 227.7 0 0-7.8 83.7 131.3 72 0 0 119.1-17.5 150.9-35.1 0 0-5.1 14.4 20.8 29.3 0 0 20 10.1-15.1 40.9 0 0-27.1 18.6-22.3 79.7 0 0 15.4 53.7 18.2 69.7 0 0 9.5 52.4-21 89.6 0 0-17.9 27.1-55.9 37.4z"/>
				<path id="&lt;Path&gt;" class="s7" d="m606.8 754.3c0 0-93.1 108.7 17.5 175.1 0 0 67.7 36.6 129-7.1 0 0 138.6-61 220.5 23.3 0 0 37.3 25.3 84.8 110.9 25.4 45.8 41.5 119.6 79.1 192 0 0-19.8-185.5-97-294.8 0 0-89.5-98.3-178-84.6-88.6 13.6-187.8 62.2-235.5-8.8 0 0-20.4-14.6-20.4-106z"/>
				<path id="&lt;Path&gt;" class="s11" d="m753.3 922.3c0 0 51.4-26 139.2 33.3 0 0 55.4 36.7 54.9 102.4 0 0 3.5 34.2-7.8 63.2 0 0 100.2 474.1 670 459.3 0 0-106.9-19.1-226.3-85.2 0 0-119.7-69.7-168.6-134.5 0 0-77.9-105.4-98.7-158.6-20.9-53.2-39.6-120.4-71.4-168.7 0 0-61-106.1-128.4-124.2 0 0-66.2-25-163.5 12"/>
				<path id="&lt;Path&gt;" class="s12" d="m936.1 1129.8c0 0-6.8 276.3-255.9 422.9 0 0-158.2 89.5-342.5 97.3 0 0 68.8-90.8 298.4-246.5 0 0 118.1-81.7 164.8-115.5 0 0 78.1-44 135.2-158.2z"/>
				<path id="&lt;Path&gt;" class="s13" d="m753.7 1803.2c0 0 57.1-229.7 269.8-271.2 0 0 150.5-27.2 327.6 38.9 0 0-165.4 122 4.6 295.8 0 0-109 131.1-373.7 62.3 0 0-144-41.5-228.3-125.8z"/>
				<path id="&lt;Path&gt;" class="s14" d="m771.2 832.7c0 35.7-29 64.7-64.7 64.7-35.7 0-64.7-29-64.7-64.7 0-35.8 29-64.7 64.7-64.7 35.7 0 64.7 28.9 64.7 64.7z"/>
				<path id="&lt;Path&gt;" class="s5" d="m757.6 832.1c0 28.5-23.1 51.6-51.6 51.6-28.5 0-51.6-23.1-51.6-51.6 0-28.5 23.1-51.6 51.6-51.6 28.5 0 51.6 23.1 51.6 51.6z"/>
				<g id="&lt;Group&gt;">
					<path id="&lt;Path&gt;" class="s15" d="m845.2 567.9c0 34.1-27.7 61.8-61.8 61.8-34.2 0-61.8-27.7-61.8-61.8 0-34.1 27.6-61.8 61.8-61.8 34.1 0 61.8 27.7 61.8 61.8z"/>
					<path id="&lt;Path&gt;" class="s15" d="m874.4 1083.2c0 38.7-31.4 70-70.1 70-38.7 0-70-31.3-70-70 0-38.7 31.3-70.1 70-70.1 38.7 0 70.1 31.4 70.1 70.1z"/>
					<path id="&lt;Path&gt;" class="s15" d="m541.6 493.4c0 25.8-20.9 46.7-46.7 46.7-25.8 0-46.7-20.9-46.7-46.7 0-25.8 20.9-46.7 46.7-46.7 25.8 0 46.7 20.9 46.7 46.7z"/>
					<path id="&lt;Path&gt;" class="s15" d="m414.2 587.8c0 25.8-21 46.7-46.7 46.7-25.8 0-46.8-20.9-46.8-46.7 0-25.8 21-46.7 46.8-46.7 25.7 0 46.7 20.9 46.7 46.7z"/>
					<path id="&lt;Path&gt;" class="s15" d="m471.5 330c0 18.2-14.8 33-33 33-18.3 0-33.1-14.8-33.1-33 0-18.3 14.8-33.1 33.1-33.1 18.2 0 33 14.8 33 33.1z"/>
					<path id="&lt;Path&gt;" class="s15" d="m296.3 442.8c0 10.8-8.7 19.5-19.4 19.5-10.7 0-19.4-8.7-19.4-19.5 0-10.7 8.7-19.4 19.4-19.4 10.7 0 19.4 8.7 19.4 19.4z"/>
					<path id="&lt;Path&gt;" class="s15" d="m202 631.6c0 10.7-8.8 19.4-19.5 19.4-10.7 0-19.4-8.7-19.4-19.4 0-10.7 8.7-19.4 19.4-19.4 10.7 0 19.5 8.7 19.5 19.4z"/>
					<path id="&lt;Path&gt;" class="s15" d="m214.6 1122c0 10.7-8.7 19.4-19.4 19.4-10.8 0-19.5-8.7-19.5-19.4 0-10.7 8.7-19.4 19.5-19.4 10.7 0 19.4 8.7 19.4 19.4z"/>
					<path id="&lt;Path&gt;" class="s15" d="m181.6 860.3c0 18.3-14.8 33.1-33.1 33.1-18.2 0-33-14.8-33-33.1 0-18.2 14.8-33 33-33 18.3 0 33.1 14.8 33.1 33z"/>
					<path id="&lt;Path&gt;" class="s15" d="m414.2 1207.7c0 18.2-14.8 33-33.1 33-18.3 0-33.1-14.8-33.1-33 0-18.3 14.8-33.1 33.1-33.1 18.3 0 33.1 14.8 33.1 33.1z"/>
					<path id="&lt;Path&gt;" class="s15" d="m312.9 722.1c0 14.3-11.5 25.8-25.7 25.8-14.2 0-25.8-11.5-25.8-25.8 0-14.2 11.6-25.7 25.8-25.7 14.2 0 25.7 11.5 25.7 25.7z"/>
					<path id="&lt;Path&gt;" class="s15" d="m313 974.3c0 14.2-11.6 25.7-25.8 25.7-14.2 0-25.7-11.5-25.7-25.7 0-14.2 11.5-25.8 25.7-25.8 14.2 0 25.8 11.6 25.8 25.8z"/>
					<path id="&lt;Path&gt;" class="s15" d="m517.3 717.2c0 25.8-20.9 46.7-46.7 46.7-25.8 0-46.7-20.9-46.7-46.7 0-25.8 20.9-46.7 46.7-46.7 25.8 0 46.7 20.9 46.7 46.7z"/>
					<path id="&lt;Path&gt;" class="s15" d="m492.9 976.1c0 25.8-20.9 46.7-46.7 46.7-25.8 0-46.7-20.9-46.7-46.7 0-25.8 20.9-46.7 46.7-46.7 25.8 0 46.7 20.9 46.7 46.7z"/>
					<path id="&lt;Path&gt;" class="s15" d="m588.3 1322.5c0 25.8-20.9 46.7-46.7 46.7-25.8 0-46.7-20.9-46.7-46.7 0-25.8 20.9-46.7 46.7-46.7 25.8 0 46.7 20.9 46.7 46.7z"/>
					<path id="&lt;Path&gt;" class="s15" d="m544.4 1296.9l-22.5 6.1-76.6-285.8 22.6-6z"/>
					<path id="&lt;Path&gt;" class="s15" d="m563 1318.1l-15.8-17.2 218.2-199.8 15.7 17.2z"/>
					<path id="&lt;Path&gt;" class="s15" d="m464.8 993.6l6.9-22.3 282.8 86.5-6.8 22.3z"/>
					<path id="&lt;Path&gt;" class="s15" d="m458.9 709l23.3 1.9-23.3 294.9-23.3-1.9z"/>
					<path id="&lt;Path&gt;" class="s15" d="m740.3 572l10.5 20.9-263.9 133.4-10.6-20.8z"/>
					<path id="&lt;Path&gt;" class="s15" d="m483.5 462.9l23.3 1.5-20 295.2-23.3-1.6z"/>
					<path id="&lt;Path&gt;" class="s15" d="m767.1 556.1l-6.1 22.5-285.4-77.7 6.1-22.5z"/>
					<path id="&lt;Path&gt;" class="s15" d="m490 709.5v23.3h-206.3v-23.3z"/>
					<path id="&lt;Path&gt;" class="s15" d="m483.2 963.4v23.4h-206.3v-23.4z"/>
				</g>
			</g>
			<g id="&lt;Group&gt;">
				<g id="&lt;Group&gt;">
					<path id="&lt;Compound Path&gt;" class="s16" d="m2341.7 591.2v114.6h-88.3v457.8h-148.9v-457.8h-88v-114.6z"/>
					<path id="&lt;Compound Path&gt;" class="s16" d="m2375.7 591.2h248.2v114.6h-99.4v108.5h93v108.9h-93v125.9h109.3v114.5h-258.1z"/>
					<path id="&lt;Compound Path&gt;" class="s16" d="m3024.1 840.5h-148.9v-99.5q0-43.4-4.7-54.1-4.8-10.8-21.1-10.8-18.4 0-23.3 13.1-5 13.1-5 56.5v265.9q0 41.7 5 54.4 4.9 12.8 22.3 12.8 16.6 0 21.7-12.8 5.1-12.7 5.1-59.9v-71.9h148.9v22.3q0 88.8-12.6 126-12.5 37.2-55.5 65.2-42.9 27.9-105.9 27.9-65.4 0-107.8-23.7-42.4-23.6-56.2-65.5-13.8-41.9-13.8-126.1v-167.2q0-61.8 4.2-92.8 4.3-30.9 25.3-59.6 21.1-28.6 58.4-45 37.2-16.5 85.7-16.5 65.7 0 108.5 25.4 42.8 25.5 56.2 63.4 13.5 38 13.5 118.1z"/>
					<path id="&lt;Compound Path&gt;" class="s16" d="m3419.7 591.2v572.4h-148.9v-240.4h-44.5v240.4h-148.9v-572.4h148.9v204.7h44.5v-204.7z"/>
					<path id="&lt;Compound Path&gt;" class="s16" d="m3833.3 591.2l-75.7 572.4h-226.1l-86-572.4h156.9q27.4 236.5 39.1 400.2 11.5-165.4 24.5-293.7l10.3-106.5z"/>
					<path id="&lt;Compound Path&gt;" class="s16" d="m4007.2 591.2v572.4h-148.8v-572.4z"/>
					<path id="&lt;Compound Path&gt;" class="s16" d="m4382.3 764.5h-138.2v-42.4q0-29.7-5.3-37.9-5.3-8.1-17.7-8.1-13.4 0-20.3 11-6.9 10.9-6.9 33.2 0 28.7 7.8 43.2 7.4 14.5 42 35 99.4 59 125.2 96.8 25.8 37.8 25.8 122 0 61.1-14.3 90.1-14.3 29-55.3 48.6-41.1 19.6-95.5 19.6-59.7 0-102-22.6-42.2-22.6-55.3-57.6-13.1-35-13.1-99.4v-37.4h138.2v69.6q0 32.2 5.9 41.4 5.8 9.2 20.7 9.2 14.8 0 22-11.7 7.3-11.7 7.3-34.6 0-50.6-13.8-66.2-14.1-15.5-69.6-51.9-55.5-36.8-73.6-53.4-18-16.6-29.8-46-11.9-29.3-11.9-74.9 0-65.8 16.8-96.2 16.8-30.4 54.3-47.5 37.4-17.2 90.5-17.2 58 0 98.8 18.8 40.8 18.7 54.1 47.2 13.2 28.4 13.2 96.7z"/>
					<path id="&lt;Compound Path&gt;" class="s16" d="m4741.2 591.2v114.6h-88.4v457.8h-148.9v-457.8h-88v-114.6z"/>
					<path id="&lt;Compound Path&gt;" fill-rule="evenodd" class="s16" d="m5003.4 591.2l85.1 572.4h-152.1l-8-102.9h-53.2l-9 102.9h-153.8l75.9-572.4zm-78.9 368.1q-11.3-97.3-22.7-240.4-22.7 164.4-28.5 240.4z"/>
					<path id="&lt;Compound Path&gt;" class="s16" d="m3176.6 1498.6h-148.8v-99.5q0-43.4-4.8-54.1-4.8-10.8-21-10.8-18.4 0-23.4 13.1-4.9 13.1-4.9 56.6v265.8q0 41.7 4.9 54.5 5 12.7 22.3 12.7 16.6 0 21.8-12.8 5.1-12.7 5.1-59.9v-71.9h148.8v22.3q0 88.9-12.5 126-12.6 37.2-55.5 65.2-43 28-105.9 28-65.4 0-107.9-23.7-42.4-23.7-56.2-65.6-13.7-41.9-13.7-126v-167.3q0-61.8 4.2-92.8 4.2-30.9 25.3-59.5 21-28.7 58.3-45.1 37.3-16.4 85.7-16.4 65.8 0 108.6 25.4 42.7 25.4 56.2 63.4 13.4 37.9 13.4 118z"/>
					<path id="&lt;Compound Path&gt;" fill-rule="evenodd" class="s16" d="m3570.1 1584.5q0 86.3-4.1 122.2-4 35.9-25.4 65.5-21.4 29.7-57.8 45.7-36.4 15.9-84.9 15.9-45.9 0-82.5-15.1-36.6-15-58.9-45-22.3-30.1-26.5-65.4-4.2-35.4-4.2-123.8v-97.9q0-86.3 4-122.2 4.1-35.8 25.5-65.5 21.4-29.7 57.8-45.6 36.4-15.9 84.8-15.9 46 0 82.6 15 36.6 15 58.8 45.1 22.3 30 26.6 65.4 4.2 35.3 4.2 123.7zm-148.8-188.1q0-39.9-4.5-51.1-4.4-11.1-18.2-11.1-11.6 0-17.8 9-6.2 9-6.2 53.2v267.3q0 49.8 4.1 61.5 4 11.7 18.9 11.7 15.2 0 19.4-13.5 4.3-13.4 4.3-64z"/>
					<path id="&lt;Compound Path&gt;" fill-rule="evenodd" class="s16" d="m3625.6 1249.4h111.4q107.8 0 145.8 9.9 38 9.9 57.8 32.5 19.8 22.6 24.7 50.4 5 27.7 5 109v200.5q0 77.1-7.3 103-7.2 26-25.2 40.7-18.1 14.7-44.6 20.5-26.5 5.8-79.9 5.8h-187.7zm148.8 98v376.5q32.2 0 39.6-12.9 7.5-12.9 7.5-70.2v-222.4q0-38.9-2.5-49.8-2.5-11-11.3-16.1-8.9-5.1-33.3-5.1z"/>
					<path id="&lt;Compound Path&gt;" class="s16" d="m4025.8 1249.4h248.2v114.5h-99.4v108.6h93v108.8h-93v125.9h109.3v114.5h-258.1z"/>
				</g>
				<g id="&lt;Group&gt;">
					<path id="&lt;Path&gt;" class="s17" d="m5258.8 266.2c0 0 35.9 68.6-3.7 121.9 0 0-43.7 55.7-155.5 70 0 0 144.9-63.1 33.2-267.3 0 0 97.5 10.1 99.3 145.8 0 0 18-13.8 26.7-70.4z"/>
					<path id="&lt;Path&gt;" class="s17" d="m5387 171.6c0 0-27 229.4-235.8 290.1 0 0-96 24-184.4 9.9 0 0-24.5-11.7-26.3-24.6l44.7-1.2c0 0 3.1-43.6 85.3 12.3 0 0-8.6-63.2-74.8-89.6 0 0-90.8-38.6-140.5 49.7 0 0-146-8-174.8 35 0 0 207.3-6.8 231.2 81.5 0 0 36.8 38.1 59.5 154 0 0 4.3 89.6 197.5 75.5 0 0 66.9 148.4 71.8 260.6 0 0 93.9-68.7 57.1-228.1 0 0-43-155.8-198.2-220.9l-52.1-27c0 0 95.7 33.8 176 52.8 0 0 138.7-1.2 169.3-74.8 0 0-47.8 8.6-58.2-17.2 0 0 107.3-27 106.7-104.3 0 0-60.7 50.3-87.7 43.6 0 0 132.5-119.3 33.7-277.3z"/>
				</g>
			</g>
		</g>
	</g>
</svg>